<?xml version="1.0" standalone="no"?>
<!DOCTYPE svg PUBLIC "-//W3C//DTD SVG 20010904//EN"
 "http://www.w3.org/TR/2001/REC-SVG-20010904/DTD/svg10.dtd">
<svg version="1.0" xmlns="http://www.w3.org/2000/svg"
 width="1080.000000pt" height="1080.000000pt" viewBox="0 0 1080.000000 1080.000000"
 preserveAspectRatio="xMidYMid meet">

<g transform="translate(0.000000,1080.000000) scale(0.100000,-0.100000)"
fill="#000000" stroke="none">
<path d="M5210 10780 c-47 -10 -107 -26 -135 -37 -64 -25 -4062 -2332 -4132
-2384 -108 -81 -226 -245 -284 -394 -63 -162 -59 4 -59 -2557 0 -1570 4 -2354
11 -2398 32 -205 173 -447 329 -566 30 -23 962 -565 2070 -1205 1512 -873
2035 -1170 2095 -1190 192 -67 452 -61 628 13 79 33 4064 2334 4129 2384 159
122 294 360 328 576 8 53 10 701 8 2428 l-3 2355 -23 73 c-59 191 -186 384
-315 481 -60 45 -4036 2342 -4114 2377 -134 60 -368 80 -533 44z m425 -2190
c432 -37 793 -136 1160 -315 554 -271 1002 -675 1324 -1192 l51 -82 -68 -40
c-37 -22 -348 -202 -691 -400 l-624 -360 -62 91 c-316 462 -843 729 -1390 704
-77 -3 -185 -15 -239 -26 -814 -162 -1370 -908 -1286 -1725 49 -479 301 -902
695 -1167 148 -100 243 -147 404 -199 464 -151 969 -80 1376 193 189 126 360
301 472 481 l29 47 684 -396 c377 -217 688 -398 693 -403 9 -9 -128 -221 -221
-341 -191 -248 -443 -491 -692 -666 -489 -344 -1030 -537 -1634 -584 -541 -42
-1106 67 -1601 309 -199 97 -322 169 -465 271 -998 712 -1503 1920 -1309 3130
138 866 650 1654 1394 2147 589 391 1317 581 2000 523z"/>
</g>
</svg>
